<?xml version="1.0" encoding="UTF-8"?>
<svg version="1.1" xmlns="http://www.w3.org/2000/svg" width="1024" height="1024">
<path d="M0 0 C337.92 0 675.84 0 1024 0 C1024 337.92 1024 675.84 1024 1024 C686.08 1024 348.16 1024 0 1024 C0 686.08 0 348.16 0 0 Z " fill="#DDE9F2" transform="translate(0,0)"/>
<path d="M0 0 C1.4394715 1.15790455 2.8894685 2.30269116 4.34033203 3.44628906 C21.51355934 17.15452058 38.02952167 32.92864761 51.55517578 50.25097656 C52.4824103 51.39099692 53.41225919 52.52889416 54.34423828 53.66503906 C113.29297672 125.77774295 139.21396985 218.10504578 129.96337891 310.38842773 C122.42114204 381.91522036 92.09106524 449.8359895 43.65673828 502.93066406 C41.83234784 504.94495388 40.06423776 506.9924627 38.30517578 509.06347656 C30.73135989 517.74953115 22.35651148 525.82289892 13.55517578 533.25097656 C12.50723612 534.16121062 11.46046985 535.07279644 10.41455078 535.98535156 C2.68235206 542.71169171 -5.19797024 549.16298488 -13.44482422 555.25097656 C-14.07727051 555.72003418 -14.7097168 556.1890918 -15.36132812 556.67236328 C-26.27079055 564.71328662 -37.56949856 571.73154501 -49.44482422 578.25097656 C-50.31848633 578.73566406 -51.19214844 579.22035156 -52.09228516 579.71972656 C-90.41874635 600.85776764 -131.27973571 613.04169881 -174.44482422 619.25097656 C-175.68643311 619.44006592 -176.92804199 619.62915527 -178.20727539 619.82397461 C-190.23109569 621.53427873 -202.24293818 621.58945424 -214.37036133 621.56665039 C-217.84537758 621.56350995 -221.31952301 621.58696552 -224.79443359 621.61230469 C-244.92275313 621.66953419 -264.88982375 619.96842768 -284.63232422 615.93847656 C-286.22971436 615.61882935 -286.22971436 615.61882935 -287.859375 615.29272461 C-338.96457321 604.82233586 -387.21969504 583.29453519 -428.44482422 551.25097656 C-429.30462891 550.59355469 -430.16443359 549.93613281 -431.05029297 549.25878906 C-433.19805221 547.60900586 -435.32470926 545.93609566 -437.44482422 544.25097656 C-438.25564453 543.61417969 -439.06646484 542.97738281 -439.90185547 542.32128906 C-456.32802354 529.18997462 -472.46950172 514.24477696 -485.48779297 497.70019531 C-487.30462912 495.42643031 -489.20895366 493.31413926 -491.19482422 491.18847656 C-533.99464345 443.45348931 -558.61120717 376.86884635 -566.44482422 314.25097656 C-566.56196777 313.35975098 -566.67911133 312.46852539 -566.79980469 311.55029297 C-578.15753556 221.95416639 -550.92017856 130.69424614 -496.09716797 59.64160156 C-495.21417676 58.51051536 -494.33013694 57.38024661 -493.44482422 56.25097656 C-492.70361328 55.29707031 -491.96240234 54.34316406 -491.19873047 53.36035156 C-478.33695601 37.21823463 -463.41288287 21.35368671 -447.44482422 8.25097656 C-446.92436523 7.81672363 -446.40390625 7.3824707 -445.86767578 6.93505859 C-421.82131838 -13.11669115 -396.51215646 -29.8376018 -368.44482422 -43.74902344 C-367.5946875 -44.17779785 -366.74455078 -44.60657227 -365.86865234 -45.04833984 C-342.1775887 -56.89849521 -315.4995383 -65.89029339 -289.44482422 -70.74902344 C-288.32430664 -70.96107422 -287.20378906 -71.173125 -286.04931641 -71.39160156 C-184.20005919 -90.23170132 -80.78506619 -65.13913723 0 0 Z " fill="#EAEFF3" transform="translate(730.44482421875,239.7490234375)"/>
<path d="M0 0 C0.84820313 0.67417969 1.69640625 1.34835938 2.5703125 2.04296875 C9.09934806 7.29781931 15.30858553 12.84451739 21.43652344 18.55419922 C23.0213777 20.0197687 24.6215041 21.46676188 26.2265625 22.91015625 C37.49331594 33.08288673 47.59417315 44.08153841 57 56 C57.80123291 57.00836914 57.80123291 57.00836914 58.61865234 58.03710938 C65.81199324 67.10377821 72.87702669 76.16328471 79 86 C79.4242627 86.67627441 79.84852539 87.35254883 80.28564453 88.04931641 C98.3294367 116.94821383 112.4378989 147.2751315 122 180 C122.54527344 181.80210937 122.54527344 181.80210937 123.1015625 183.640625 C139.16857323 239.80984952 139.92284359 301.18357464 127 358 C126.77973145 358.98387695 126.55946289 359.96775391 126.33251953 360.98144531 C121.59814971 381.85118012 115.63949278 402.83055413 106 422 C105.15217888 423.79365423 104.3088868 425.58945241 103.46875 427.38671875 C98.40406736 438.19326101 93.25887526 448.82564522 87 459 C86.5447998 459.74233887 86.08959961 460.48467773 85.62060547 461.24951172 C79.75992685 470.76285686 73.7937721 480.12042067 67 489 C66.4534375 489.72703125 65.906875 490.4540625 65.34375 491.203125 C57.98908661 500.84744775 50.02779176 510.00396524 41.78100586 518.890625 C39.38326759 521.47593701 37.05471624 524.09154029 34.8125 526.8125 C32.16813008 529.94937435 29.18184445 532.5404808 26.05859375 535.19140625 C23.99675493 537.00285098 22.09623288 538.90381369 20.1875 540.875 C15.45188488 545.66568042 10.25912398 549.80198553 5 554 C3.85194811 554.93768112 2.70485124 555.87653244 1.55859375 556.81640625 C-31.02550834 583.41594169 -68.11984472 603.72469763 -108 617 C-108.7930957 617.26699707 -109.58619141 617.53399414 -110.40332031 617.80908203 C-185.09729836 642.82583328 -272.4836506 641.91233865 -346 613 C-346.87769043 612.65630371 -347.75538086 612.31260742 -348.65966797 611.95849609 C-388.93733959 596.02710989 -424.97391136 573.93773477 -457.47363281 545.33837891 C-458.92876695 544.06245994 -460.39765718 542.80228015 -461.8671875 541.54296875 C-462.69476563 540.82753906 -463.52234375 540.11210938 -464.375 539.375 C-465.08398438 538.76398437 -465.79296875 538.15296875 -466.5234375 537.5234375 C-468 536 -468 536 -468 534 C-468.5775 533.7525 -469.155 533.505 -469.75 533.25 C-472.32939979 531.81700012 -474.06121592 530.21575324 -476 528 C-476 527.34 -476 526.68 -476 526 C-476.66 526 -477.32 526 -478 526 C-479.375 524.63671875 -479.375 524.63671875 -481 522.6875 C-483.84002365 519.33697623 -486.75815152 516.09076071 -489.75 512.875 C-495.00259107 507.10667114 -499.82696392 501.06529137 -504.56591797 494.87109375 C-506.01543136 492.9798662 -507.47826668 491.09944673 -508.94140625 489.21875 C-530.43825742 461.34490978 -546.21149086 430.09177937 -558 397 C-558.29922363 396.22470947 -558.59844727 395.44941895 -558.90673828 394.65063477 C-561.8859287 386.81558142 -564.00388934 378.81588541 -566 370.6875 C-566.17397308 369.9838028 -566.34794617 369.28010559 -566.52719116 368.55508423 C-569.51247228 356.44121509 -572.14115431 344.34085641 -574 332 C-574.14808105 331.10458496 -574.29616211 330.20916992 -574.44873047 329.28662109 C-577.17363754 312.42974169 -577.29032807 295.59563875 -577.3125 278.5625 C-577.31608521 277.45001892 -577.31967041 276.33753784 -577.32336426 275.19134521 C-577.35628198 256.18345999 -576.10058296 237.67413803 -572.8125 218.9375 C-572.59819336 217.71562988 -572.38388672 216.49375977 -572.16308594 215.23486328 C-563.49347356 167.60104535 -545.54760845 121.88289527 -518 82 C-517.54496094 81.33935547 -517.08992188 80.67871094 -516.62109375 79.99804688 C-511.42044025 72.49202906 -505.94602363 65.20087193 -500.33203125 58 C-498.83504647 56.07423064 -497.35195363 54.13753533 -495.88671875 52.1875 C-495.26410156 51.3625 -494.64148438 50.5375 -494 49.6875 C-493.46375 48.96949219 -492.9275 48.25148438 -492.375 47.51171875 C-491.694375 46.76341797 -491.694375 46.76341797 -491 46 C-490.34 46 -489.68 46 -489 46 C-488.60929321 45.12927856 -488.60929321 45.12927856 -488.21069336 44.2409668 C-486.03396592 40.21189216 -482.68999982 37.12241279 -479.5625 33.8125 C-478.88123047 33.07580078 -478.19996094 32.33910156 -477.49804688 31.58007812 C-476.51094727 30.52916992 -476.51094727 30.52916992 -475.50390625 29.45703125 C-474.60393921 28.4976062 -474.60393921 28.4976062 -473.68579102 27.51879883 C-472 26 -472 26 -469 25 C-469 24.34 -469 23.68 -469 23 C-467.671875 21.66015625 -467.671875 21.66015625 -465.75 20.0625 C-462.24889003 17.09908231 -458.89656086 14.02511267 -455.5625 10.875 C-448.15739384 4.00538952 -440.12629946 -2.01658218 -432 -8 C-431.30745117 -8.51208008 -430.61490234 -9.02416016 -429.90136719 -9.55175781 C-400.52583755 -31.14936944 -367.85018501 -47.78096684 -333.26806641 -59.24755859 C-331.20957082 -59.93047392 -329.15749053 -60.62998191 -327.10546875 -61.33203125 C-305.95220339 -68.30928632 -284.05569786 -72.2222043 -262 -75 C-261.11054688 -75.11859375 -260.22109375 -75.2371875 -259.3046875 -75.359375 C-167.42241381 -87.30691523 -71.76318042 -57.58931382 0 0 Z M-323 -56 C-324.06863281 -55.66629395 -325.13726562 -55.33258789 -326.23828125 -54.98876953 C-363.16332979 -43.24437019 -398.51252998 -25.27419703 -429.12109375 -1.46142578 C-430.97990732 -0.01562822 -432.84845227 1.41675986 -434.71875 2.84765625 C-441.17246057 7.81665741 -447.3447848 12.95815946 -453.3046875 18.515625 C-455.42413442 20.46920216 -457.57020689 22.35870625 -459.75390625 24.23828125 C-464.38689922 28.27799857 -468.72850612 32.58145017 -473.0625 36.9375 C-473.82626953 37.69740234 -474.59003906 38.45730469 -475.37695312 39.24023438 C-526.0261674 89.97610257 -557.75990318 158.47233207 -568 229 C-568.15098145 230.01352539 -568.30196289 231.02705078 -568.45751953 232.07128906 C-578.72697863 303.65839227 -564.79455788 378.29459617 -531 442 C-530.61875977 442.71994141 -530.23751953 443.43988281 -529.84472656 444.18164062 C-524.1429213 454.86850529 -517.9957335 465.11113193 -511 475 C-510.47390137 475.7439502 -509.94780273 476.48790039 -509.40576172 477.25439453 C-501.49560891 488.36241449 -493.13136833 498.8764791 -484 509 C-483.10136791 510.0102436 -482.20292211 511.02065296 -481.3046875 512.03125 C-475.96927189 517.95595032 -470.43577918 523.66190124 -464.8125 529.3125 C-464.15918701 529.97048584 -463.50587402 530.62847168 -462.83276367 531.30639648 C-408.23077039 585.72956978 -334.00148022 618.18627578 -258 627 C-257.2544838 627.08805405 -256.50896759 627.17610809 -255.74085999 627.26683044 C-249.25277971 627.97869574 -242.82477363 628.19033648 -236.30078125 628.23828125 C-235.19997223 628.2480751 -234.09916321 628.25786896 -232.96499634 628.26795959 C-209.3198787 628.43499569 -186.3081842 628.36343554 -163 624 C-161.79811035 623.78569336 -160.5962207 623.57138672 -159.35791016 623.35058594 C-109.269327 614.30105099 -59.76665064 594.90212777 -19 564 C-18.17580566 563.3797998 -18.17580566 563.3797998 -17.33496094 562.74707031 C-6.37887456 554.49352753 4.18283389 545.88091586 14.234375 536.546875 C16.43381701 534.52140015 18.65876171 532.55905519 20.9375 530.625 C24.62907081 527.41997513 28.0990168 524.00974581 31.5625 520.5625 C32.09286865 520.03672363 32.6232373 519.51094727 33.16967773 518.96923828 C59.50195678 492.53550955 79.45609814 461.24197628 96 428 C96.4031543 427.19723633 96.80630859 426.39447266 97.22167969 425.56738281 C136.55953681 346.25448248 138.24886718 250.06585577 111.25 166.875 C93.54657756 114.37937472 62.57397917 68.67862692 23.75 29.625 C22.77571045 28.64358032 22.77571045 28.64358032 21.78173828 27.64233398 C1.97280794 7.9013286 -21.11858171 -8.58301023 -45 -23 C-45.65613281 -23.39638672 -46.31226563 -23.79277344 -46.98828125 -24.20117188 C-91.1556164 -50.58269608 -140.97142244 -65.1428999 -192 -70 C-193.05815918 -70.10586426 -193.05815918 -70.10586426 -194.13769531 -70.21386719 C-236.89984051 -74.36489207 -282.05728791 -68.79782441 -323 -56 Z " fill="#FCFDFD" transform="translate(733,233)"/>
<path d="M0 0 C8.04807231 1.20886683 13.51443397 4.42841601 20.25 8.875 C22.37413592 10.24165391 24.50048194 11.60487821 26.62890625 12.96484375 C27.69254395 13.64530762 28.75618164 14.32577148 29.85205078 15.02685547 C34.5514753 17.97246963 39.35444446 20.71846399 44.1875 23.4375 C50.80821671 27.17144711 57.33133771 30.99274156 63.78125 35.015625 C69.72815936 38.68192349 75.77241332 42.18488769 81.80175781 45.71337891 C91.77942916 51.55326429 101.74153177 57.41705706 111.64453125 63.3828125 C115.11454109 65.472011 118.59364742 67.54563529 122.07421875 69.6171875 C123.16283203 70.2666333 124.25144531 70.9160791 125.37304688 71.58520508 C127.5200756 72.86605258 129.66843132 74.14467937 131.81835938 75.4206543 C160.00447775 92.2610078 160.00447775 92.2610078 166 107 C168.28747805 116.62318354 167.69371005 124.60411639 162.828125 133.30078125 C157.95231216 140.49989807 151.45549252 144.93500255 143 147 C135.21490005 147.99888187 127.70903343 147.33826388 121 143 C119.57421875 141.26953125 119.57421875 141.26953125 118.3125 139.3125 C114.4108725 133.50789887 108.47020176 130.73225027 102.51025391 127.40771484 C98.57719903 125.20211337 94.6790031 122.93662423 90.77539062 120.67944336 C87.39828249 118.7273306 84.01752075 116.78164433 80.63671875 114.8359375 C74.65302181 111.38483489 68.69404542 107.8938921 62.75 104.375 C61.87230957 103.85550781 60.99461914 103.33601563 60.09033203 102.80078125 C55.33902223 99.98544899 50.59262735 97.16193722 45.84765625 94.3359375 C44.83799805 93.73604004 43.82833984 93.13614258 42.78808594 92.51806641 C40.84583767 91.36399995 38.90501385 90.20753186 36.96582031 89.04833984 C36.09666992 88.53223145 35.22751953 88.01612305 34.33203125 87.484375 C33.18311401 86.79939941 33.18311401 86.79939941 32.01098633 86.10058594 C29.9001341 84.86779326 29.9001341 84.86779326 27 84 C27 108.75 27 133.5 27 159 C24.46014188 155.82517735 22.30589071 153.00709929 20.1875 149.625 C10.62492773 135.29294724 -5.53807323 126.87203931 -19.921875 118.078125 C-20.75090332 117.54654785 -21.57993164 117.0149707 -22.43408203 116.46728516 C-24.96700933 114.90877473 -24.96700933 114.90877473 -27.84326172 114.04443359 C-31.19072773 112.74846826 -32.79596846 111.86884679 -35 109 C-36.71589726 101.9194103 -35.93078501 94.33460284 -35.625 87.125 C-35.57481862 85.0808371 -35.52919482 83.03655689 -35.48828125 80.9921875 C-35.37827716 75.99189347 -35.20586882 70.99722801 -35 66 C-31 67.33333333 -27 68.66666667 -23 70 C-10.60106275 70.89299825 -0.99933666 68.51227848 9 61 C15.79673623 54.23237185 20.10075529 43.97672407 20.25 34.4375 C20.11192406 24.00649039 17.06250302 15.79220813 10 8 C7.39655478 5.91268969 4.75931664 4.06216031 1.94140625 2.27734375 C1.30074219 1.85582031 0.66007813 1.43429687 0 1 C0 0.67 0 0.34 0 0 Z " fill="#EA8A4F" transform="translate(521,306)"/>
<path d="M0 0 C12.66692871 9.85205566 19.40662132 23.7774296 22.4296875 39.37109375 C22.96733373 44.7310975 23.03689222 50.05346388 23.0625 55.4375 C23.083125 56.50613281 23.10375 57.57476562 23.125 58.67578125 C23.17580143 69.12817596 20.85916574 78.05927441 16.0625 87.3125 C15.71106934 87.99844238 15.35963867 88.68438477 14.99755859 89.39111328 C12.14150353 94.82649884 8.96227155 99.64004201 4.8125 104.1875 C4.131875 104.94804688 3.45125 105.70859375 2.75 106.4921875 C-7.32808345 117.1490798 -19.82654008 126.31883339 -32.1875 134.1875 C-32.5175 134.1875 -32.8475 134.1875 -33.1875 134.1875 C-33.19007813 132.95515625 -33.19265625 131.7228125 -33.1953125 130.453125 C-33.40576478 118.21718202 -34.9719342 108.74647677 -43.375 99.25 C-48.37819184 94.67213543 -54.83476528 92.30507824 -61.1875 90.1875 C-60.05661577 86.79484731 -59.24452289 86.2526587 -56.5 84.125 C-49.14606782 77.88009889 -44.88347477 69.73984782 -43.8671875 60.171875 C-43.41941554 51.48899258 -45.26597511 45.12427351 -48.77734375 37.3671875 C-51.95696997 30.19761481 -52.59696649 22.5557702 -50.1640625 15.015625 C-45.98375323 5.91594626 -40.19416213 -0.445182 -30.875 -4.3125 C-19.42553111 -7.89445675 -10.17675651 -5.78678311 0 0 Z " fill="#2E94C5" transform="translate(526.1875,449.8125)"/>
<path d="M0 0 C-0.04640625 1.17175781 -0.0928125 2.34351563 -0.140625 3.55078125 C-0.49311822 16.12929413 0.57958106 25.97761952 8.94921875 35.99609375 C14.58143744 41.49957601 21.62534066 44.54178022 29 47 C28.154375 47.969375 27.30875 48.93875 26.4375 49.9375 C25.28777245 51.28836193 24.14224391 52.64280428 23 54 C22.10087891 55.06541016 22.10087891 55.06541016 21.18359375 56.15234375 C14.28506329 64.63023539 11.30765347 71.22605766 11.59375 82.32421875 C12.01069518 86.09677083 12.86345225 89.3833427 14 93 C17.03044927 102.65414553 17.69521574 112.40073531 13.328125 121.75 C8.71369901 129.5673805 3.23661053 133.90535579 -5.125 137.25 C-15.82557566 139.32107916 -24.83553775 138.40288771 -34.1484375 132.6796875 C-46.64656882 123.91662991 -53.10777702 110.77656567 -56 96 C-56.39760644 91.51092795 -56.42077891 87.06663627 -56.375 82.5625 C-56.38660156 81.42490234 -56.39820313 80.28730469 -56.41015625 79.11523438 C-56.37314542 68.30190398 -54.35637579 58.53134089 -49.3125 48.9375 C-48.96219727 48.25977539 -48.61189453 47.58205078 -48.25097656 46.88378906 C-38.7155907 28.88009275 -24.18808589 16.79171727 -8 5 C-7.3292041 4.50870605 -6.6584082 4.01741211 -5.96728516 3.51123047 C-1.12654768 0 -1.12654768 0 0 0 Z " fill="#32A8C5" transform="translate(408,291)"/>
<path d="M0 0 C2.44921875 2.109375 2.44921875 2.109375 4.6875 4.75 C11.9158852 12.34851336 19.10105745 15.21237058 29.5625 15.5625 C40.411035 15.15249408 48.38222779 11.38353497 57 5 C55.76706109 19.8260904 47.65451514 32.00342196 37 42 C33.15109451 44.78832407 29.12087397 47.06569057 24.9375 49.3125 C23.21707804 50.27055867 21.49666095 51.22862626 19.77656555 52.18727112 C18.01586134 53.1639314 16.25010249 54.13075802 14.48242188 55.09472656 C10.07554666 57.50577916 5.69748407 59.96637941 1.31884766 62.42822266 C-1.80247657 64.18186856 -4.92813658 65.92756795 -8.0546875 67.671875 C-13.53170972 70.73251197 -18.99061602 73.82357602 -24.4375 76.9375 C-25.26926758 77.41292236 -26.10103516 77.88834473 -26.95800781 78.37817383 C-31.87015352 81.19185912 -36.77008014 84.02593387 -41.6640625 86.87109375 C-42.82099781 87.54248028 -43.97798026 88.21378559 -45.13500977 88.88500977 C-47.34830579 90.1700426 -49.55986195 91.45807898 -51.76928711 92.74975586 C-58.71726214 96.78260342 -65.77306272 100.49177802 -73 104 C-74.03902295 92.4384527 -74.03902295 92.4384527 -71.39453125 88.77734375 C-69.97870336 87.52620879 -68.55107558 86.2883282 -67.11328125 85.0625 C-61.14243677 79.23513238 -59.69366518 71.36574378 -59.5 63.3125 C-59.88316115 53.43097563 -62.24137863 46.33944039 -69 39 C-69.99 38.34 -70.98 37.68 -72 37 C-72 36.34 -72 35.68 -72 35 C-70.89434692 34.39079712 -70.89434692 34.39079712 -69.76635742 33.76928711 C-53.75054181 24.94308456 -37.74746811 16.09462183 -21.765625 7.20703125 C-20.78013672 6.6651416 -19.79464844 6.12325195 -18.77929688 5.56494141 C-16.99268066 4.55894967 -15.22572136 3.51675267 -13.48632812 2.43115234 C-8.66330449 -0.52676532 -5.68229337 -1.95135588 0 0 Z " fill="#BD587A" transform="translate(629,444)"/>
<path d="M0 0 C4.80383911 2.99252476 9.64503015 5.9084539 14.53515625 8.7578125 C15.15861435 9.12139862 15.78207245 9.48498474 16.42442322 9.85958862 C18.97658054 11.34633371 21.53019806 12.83054863 24.0847168 14.31323242 C25.98610549 15.41764038 27.88571433 16.52506068 29.78515625 17.6328125 C30.89640869 18.27839111 32.00766113 18.92396973 33.15258789 19.58911133 C35.58080392 21.06959173 37.83150357 22.60524929 40.0625 24.36328125 C39.7325 25.35328125 39.4025 26.34328125 39.0625 27.36328125 C36.875 28.3203125 36.875 28.3203125 34.0625 29.17578125 C22.94692061 32.99631113 16.14801316 39.00880372 10.91015625 49.46484375 C8.6480312 54.66586184 8.59898729 59.32928471 8.8125 64.92578125 C8.83054687 65.83908203 8.84859375 66.75238281 8.8671875 67.69335938 C8.91377299 69.91781639 8.97914515 72.13995092 9.0625 74.36328125 C-3.13202343 68.6524657 -14.65949652 61.83714873 -26.22705078 54.96386719 C-28.50338568 53.61963627 -30.79044291 52.30023154 -33.08984375 50.99609375 C-42.38881837 45.5924889 -49.27952244 39.72755101 -52.9375 29.36328125 C-53.21821807 26.61389548 -53.3697737 24.1592094 -53.3125 21.42578125 C-53.30162354 20.72066406 -53.29074707 20.01554688 -53.27954102 19.2890625 C-53.01495771 10.66264825 -50.81900222 5.49701931 -44.97265625 -0.80859375 C-30.86093937 -13.48476169 -14.69651061 -9.22911511 0 0 Z " fill="#3173BE" transform="translate(414.9375,511.63671875)"/>
<path d="M0 0 C4.47897004 1.32833836 8.09907555 3.10161313 12.0625 5.5625 C13.38819794 6.3755351 14.71513812 7.18654639 16.04296875 7.99609375 C16.80786621 8.46257324 17.57276367 8.92905273 18.36083984 9.40966797 C23.21260863 12.33329627 28.11174311 15.17667863 33.00378418 18.03219604 C43.46694254 24.14275834 53.90806523 30.28995208 64.3125 36.5 C65.39192871 37.1408252 66.47135742 37.78165039 67.58349609 38.44189453 C68.5627002 39.02825684 69.5419043 39.61461914 70.55078125 40.21875 C71.41356689 40.73373047 72.27635254 41.24871094 73.1652832 41.77929688 C73.77073975 42.18212891 74.37619629 42.58496094 75 43 C75 43.33 75 43.66 75 44 C74.10539062 44.14695312 73.21078125 44.29390625 72.2890625 44.4453125 C60.94120789 46.55035163 51.13210899 50.53690905 44 60 C39.26919489 68.0487906 36.84309491 74.46639621 36.9375 83.8125 C36.95833333 85.875 36.97916667 87.9375 37 90 C13.74800152 77.3742151 -9.06954736 64.05852796 -31.5625 50.125 C-32.22950928 49.71419189 -32.89651855 49.30338379 -33.58374023 48.88012695 C-35.07395123 47.94846641 -36.54037479 46.97888427 -38 46 C-38 45.67 -38 45.34 -38 45 C-37.17757813 44.84144531 -36.35515625 44.68289063 -35.5078125 44.51953125 C-24.46876424 42.21229368 -13.28597092 38.61928779 -6.56640625 28.93359375 C-5.23798126 26.66699325 -4.08935305 24.39019223 -3 22 C-2.67902344 21.30003906 -2.35804688 20.60007812 -2.02734375 19.87890625 C0.54421619 13.36030083 0.28873707 6.91899571 0 0 Z " fill="#309EC8" transform="translate(431,392)"/>
<path d="M0 0 C3.74854151 1.40208725 7.11856506 3.11675056 10.578125 5.125 C11.64893311 5.74431396 12.71974121 6.36362793 13.82299805 7.00170898 C14.95390869 7.66114502 16.08481934 8.32058105 17.25 9 C18.42159321 9.68243769 19.59322432 10.36481031 20.76489258 11.04711914 C22.52267215 12.07080564 24.28026393 13.09480003 26.03694153 14.12037659 C29.42115833 16.09323772 32.82245441 18.03007453 36.24609375 19.93359375 C50.64523529 27.9963179 50.64523529 27.9963179 55 35 C55.42539062 35.66128906 55.85078125 36.32257813 56.2890625 37.00390625 C59.86584122 43.60999755 60.04207241 50.67342934 59 58 C56.42651005 65.98345423 52.19412368 72.54708551 45 77 C37.76459419 80.58559311 30.7132843 82.51884847 22.78125 80.41015625 C4.89144921 73.94001163 -11.69772604 61.71659898 -28 52 C-27.67 51.01 -27.34 50.02 -27 49 C-24.0859375 47.60546875 -24.0859375 47.60546875 -20.375 46.1875 C-11.22710846 42.48310592 -5.36457126 37.96895413 -1 29 C3.01480161 19.30965556 3.00609638 9.95769424 0 0 Z " fill="#43BFA4" transform="translate(475,289)"/>
<path d="M0 0 C1.69588257 0.00456207 1.69588257 0.00456207 3.42602539 0.00921631 C21.74613482 0.08179228 39.40773274 1.03716043 57.4375 4.4375 C58.62585449 4.65712402 59.81420898 4.87674805 61.03857422 5.10302734 C81.91363944 9.05432904 102.80638831 14.19460227 122.4375 22.4375 C123.51515625 22.870625 124.5928125 23.30375 125.703125 23.75 C130.53289622 25.70990716 134.9715799 27.74771506 139.4375 30.4375 C141.344261 31.14849563 143.25176645 31.85782567 145.16796875 32.54296875 C149.3967715 34.20974298 153.40548186 36.34712994 157.4375 38.4375 C157.4375 39.0975 157.4375 39.7575 157.4375 40.4375 C158.73880859 40.82421875 158.73880859 40.82421875 160.06640625 41.21875 C163.51420649 42.46523166 166.27404781 43.98992642 169.375 45.9375 C169.93002197 46.28570801 170.48504395 46.63391602 171.05688477 46.99267578 C177.93971156 51.34002654 184.71204609 55.85141693 191.4375 60.4375 C192.41710693 61.10048096 192.41710693 61.10048096 193.41650391 61.77685547 C195.34838691 63.08973474 197.26929558 64.4172363 199.1875 65.75 C199.77200928 66.14622559 200.35651855 66.54245117 200.95874023 66.95068359 C207.31811171 71.42980309 208.83691299 76.17329743 210.4375 83.4375 C207.32332289 82.04883824 205.2000903 80.41816491 202.75 78.0625 C188.63597657 65.38496038 172.08915474 56.3206502 155.4375 47.4375 C154.49712891 46.93299316 153.55675781 46.42848633 152.58789062 45.90869141 C84.26821172 9.56037262 3.77305333 0.29416714 -71.5625 16.4375 C-73.08375488 16.76210205 -73.08375488 16.76210205 -74.63574219 17.09326172 C-118.75408745 26.75363309 -161.94432794 46.74531549 -197.47558594 74.73022461 C-202.24938845 78.4375 -202.24938845 78.4375 -205.5625 78.4375 C-205.5625 74.10106837 -204.3144666 71.75128262 -201.4375 68.6875 C-196.53156863 64.07222525 -190.95105642 60.53048387 -185.3125 56.890625 C-182.03468041 54.77065869 -178.88221799 52.5188668 -175.75 50.1875 C-161.60186889 39.8079931 -161.60186889 39.8079931 -154.5625 39.4375 C-154.5625 38.7775 -154.5625 38.1175 -154.5625 37.4375 C-148.29778663 34.25885233 -142.06442591 31.10793385 -135.5625 28.4375 C-134.75167969 28.09332031 -133.94085938 27.74914062 -133.10546875 27.39453125 C-129.93326802 26.05361466 -126.74801328 24.74646927 -123.5625 23.4375 C-122.95631836 23.17952637 -122.35013672 22.92155273 -121.72558594 22.65576172 C-102.84371383 14.63552575 -82.88552595 9.39773372 -62.75 5.625 C-61.77619385 5.44243652 -60.8023877 5.25987305 -59.79907227 5.07177734 C-56.39330264 4.47266283 -52.98316923 3.9454028 -49.5625 3.4375 C-48.32129898 3.25007736 -48.32129898 3.25007736 -47.05502319 3.05886841 C-31.32630238 0.73188958 -15.88948906 -0.09141012 0 0 Z " fill="#7D8FA3" transform="translate(511.5625,175.5625)"/>
<path d="M0 0 C8.6625 -0.0928125 8.6625 -0.0928125 17.5 -0.1875 C20.20993164 -0.22846802 20.20993164 -0.22846802 22.97460938 -0.27026367 C24.43098282 -0.27903796 25.88736371 -0.28667966 27.34375 -0.29296875 C28.08012695 -0.30831665 28.81650391 -0.32366455 29.57519531 -0.33947754 C36.36482809 -0.34284987 41.62114043 1.39884452 47.25 5.1875 C52.28335854 10.33525305 54.22603202 14.75811307 54.5 22 C54.26160021 28.30170108 52.87352584 33.00185697 48.46875 37.59765625 C44.6020195 41 44.6020195 41 42 41 C42.39380859 41.60062256 42.78761719 42.20124512 43.19335938 42.82006836 C44.96459403 45.52434541 46.73233986 48.23088526 48.5 50.9375 C49.43005859 52.35579102 49.43005859 52.35579102 50.37890625 53.80273438 C50.96542969 54.70185547 51.55195312 55.60097656 52.15625 56.52734375 C52.70087891 57.35999756 53.24550781 58.19265137 53.80664062 59.05053711 C55 61 55 61 55 62 C49.98725296 62.90229447 44.88647021 63.76606079 40 62 C34.86021241 57.58355664 31.97557214 50.95114427 29 45 C26.44242141 44.68658574 24.00356179 44.48771761 21.4375 44.375 C18.983125 44.25125 16.52875 44.1275 14 44 C14 49.94 14 55.88 14 62 C9.38 62 4.76 62 0 62 C0 41.54 0 21.08 0 0 Z " fill="#1D345A" transform="translate(552,656)"/>
<path d="M0 0 C7.85707378 4.09934284 13.05537962 9.19424448 16.40234375 17.4765625 C18.66132431 25.36737937 17.92391039 32.76902749 14.5 40.1875 C10.50247954 47.38303682 5.2727414 52.11296211 -2.75 54.4375 C-10.08365519 55.27020587 -18.51340693 55.9721859 -25.01171875 51.89453125 C-30.91685664 46.9448314 -36.45484735 41.2587131 -37.75 33.4375 C-38.48225988 25.0026077 -38.80933597 17.51349437 -33.75 10.4375 C-33.21375 9.57125 -32.6775 8.705 -32.125 7.8125 C-23.59501415 -0.71748585 -11.54375668 -4.7059914 0 0 Z " fill="#41BFA3" transform="translate(452.75,275.5625)"/>
<path d="M0 0 C6.93894343 4.89077587 11.18055511 10.15729963 13.18359375 18.5390625 C14.13622035 26.92867174 13.47860441 33.98664547 8.484375 40.88671875 C2.80050664 47.75426107 -3.33033101 51.81378252 -12.26171875 52.8125 C-19.66977226 53.09327171 -24.5571465 51.43118402 -30.81640625 47.5390625 C-31.72390625 47.0028125 -32.63140625 46.4665625 -33.56640625 45.9140625 C-40.37939887 38.72257029 -42.6930771 31.46494841 -42.52880859 21.75390625 C-42.02707997 13.38048768 -38.44390798 7.75491253 -32.37890625 2.1015625 C-22.81130613 -5.20874668 -10.562225 -6.20899269 0 0 Z " fill="#3174BE" transform="translate(472.81640625,550.4609375)"/>
<path d="M0 0 C4.95 0 9.9 0 15 0 C16.02738281 2.248125 17.05476562 4.49625 18.11328125 6.8125 C18.78644911 8.28516047 19.45962506 9.75781724 20.1328125 11.23046875 C21.59076533 14.42015289 23.04768161 17.61030778 24.50390625 20.80078125 C27.82025172 28.06392256 31.14278848 35.32357371 34.51171875 42.5625 C35.27778442 44.21378906 35.27778442 44.21378906 36.05932617 45.8984375 C37.00143218 47.92665555 37.94802936 49.95279504 38.8996582 51.9765625 C39.3143335 52.87117187 39.72900879 53.76578125 40.15625 54.6875 C40.51525391 55.45449219 40.87425781 56.22148438 41.24414062 57.01171875 C42 59 42 59 42 62 C37.05 62 32.1 62 27 62 C25.35 57.71 23.7 53.42 22 49 C7.15 48.505 7.15 48.505 -8 48 C-8.33 49.65 -8.66 51.3 -9 53 C-10.21269669 56.06339846 -11.61540165 59.00748098 -13 62 C-17.62 62 -22.24 62 -27 62 C-24.77372813 54.61101165 -21.6754551 47.76067808 -18.35968018 40.80938721 C-16.78621887 37.50885711 -15.23004541 34.20023017 -13.67578125 30.890625 C-13.36433167 30.22765411 -13.05288208 29.56468323 -12.73199463 28.88162231 C-8.27135852 19.3501178 -4.12671458 9.67971299 0 0 Z " fill="#1C3359" transform="translate(501,656)"/>
<path d="M0 0 C0.33 0 0.66 0 1 0 C1.12462143 6.18889215 1.21481812 12.37703638 1.2746582 18.56689453 C1.2996322 20.66761008 1.33362366 22.76824027 1.37719727 24.86865234 C1.9271637 52.08228545 1.9271637 52.08228545 -7.95703125 62.3984375 C-15.3410355 68.18704504 -23.65527232 72.1435184 -33.1875 71.484375 C-43.34969007 69.73422004 -49.61611768 64.59773024 -56.5625 57.3125 C-58 55 -58 55 -57.77954102 52.98803711 C-56.43795749 49.56664198 -53.00255533 48.3022899 -49.9375 46.5625 C-40.90880478 41.19251178 -32.98244662 34.79793932 -25 28 C-23.77990234 26.97712891 -23.77990234 26.97712891 -22.53515625 25.93359375 C-20.65147664 24.32593848 -18.8173166 22.68211143 -17 21 C-16.27683594 20.34128906 -15.55367187 19.68257812 -14.80859375 19.00390625 C-9.46990353 13.93621553 -5.44946335 8.53575425 -1.53125 2.30859375 C-1.0259375 1.54675781 -0.520625 0.78492188 0 0 Z " fill="#7E419F" transform="translate(547,543)"/>
<path d="M0 0 C4.62 0 9.24 0 14 0 C14 8.25 14 16.5 14 25 C23.9 25 33.8 25 44 25 C44 16.75 44 8.5 44 0 C48.29 0 52.58 0 57 0 C57 20.46 57 40.92 57 62 C52.71 62 48.42 62 44 62 C44 53.42 44 44.84 44 36 C34.1 36 24.2 36 14 36 C14 44.58 14 53.16 14 62 C9.38 62 4.76 62 0 62 C0 41.54 0 21.08 0 0 Z " fill="#1D3358" transform="translate(407,656)"/>
<path d="M0 0 C4.29 0 8.58 0 13 0 C13.01401855 1.70929687 13.01401855 1.70929687 13.02832031 3.453125 C13.06841055 7.71018528 13.13422095 11.96653727 13.20751953 16.22314453 C13.23561931 18.05996553 13.25688818 19.89690497 13.27099609 21.73388672 C13.29257897 24.38570314 13.33930499 27.03611185 13.390625 29.6875 C13.39185364 30.49928711 13.39308228 31.31107422 13.39434814 32.14746094 C13.56069734 38.72938359 15.41368099 43.93473303 19.6875 49 C24.54816042 51.10190721 29.94626241 50.63302105 34.875 48.875 C38.72531044 46.56481374 39.39880296 45.16866897 41 41 C41.44284954 37.81417922 41.488005 34.65860954 41.51171875 31.4453125 C41.52966995 30.54376434 41.54762115 29.64221619 41.56611633 28.71334839 C41.6200415 25.85061232 41.65405775 22.98804129 41.6875 20.125 C41.7206888 18.17706046 41.7551799 16.22914264 41.79101562 14.28125 C41.87575772 9.52095274 41.94265359 4.76070292 42 0 C46.62 0 51.24 0 56 0 C56.09956118 5.79829005 56.17179346 11.59607242 56.21972656 17.39501953 C56.23972787 19.36385782 56.26693802 21.33263756 56.30175781 23.30126953 C56.35078531 26.14630658 56.37308382 28.99055215 56.390625 31.8359375 C56.41127014 32.70302338 56.43191528 33.57010925 56.45318604 34.46347046 C56.45613861 42.67369899 54.29729096 49.8590355 48.625 55.9375 C41.0568641 62.81027299 33.2865904 63.31995828 23.44140625 63.20703125 C16.04462823 62.76204914 11.53289716 60.00914997 5.859375 55.40234375 C0.57020282 48.5686444 -0.5859776 41.02887997 -0.390625 32.6171875 C-0.38496521 31.67690704 -0.37930542 30.73662659 -0.37347412 29.76785278 C-0.3513165 26.80302154 -0.30116127 23.83945782 -0.25 20.875 C-0.22990827 18.84897595 -0.21166222 16.82293271 -0.1953125 14.796875 C-0.15151969 9.86410467 -0.08263882 4.93226623 0 0 Z " fill="#1C345B" transform="translate(620,656)"/>
<path d="M0 0 C1.18432617 0.00302124 1.18432617 0.00302124 2.39257812 0.00610352 C9.15488087 0.12209618 15.10606748 1.27178374 21.1875 4.3125 C20.58825776 8.50719571 19.61250059 12.32249834 18.1875 16.3125 C17.29998047 16.00505859 17.29998047 16.00505859 16.39453125 15.69140625 C8.13879518 12.87664469 -0.3849258 10.35857329 -8.9375 13.4375 C-11.09076972 15.23784227 -11.09076972 15.23784227 -11.375 18.3125 C-11.10092223 21.29750712 -11.10092223 21.29750712 -9.32421875 22.84765625 C-5.1062606 25.30758518 -0.42814647 26.1645025 4.28125 27.33007812 C10.6739058 28.98723471 16.48935838 31.1539867 21.6875 35.3125 C24.57791056 41.09332112 24.03872936 47.71152141 22.0625 53.75 C17.60793429 59.83790647 12.55379271 62.94642575 5.1875 64.3125 C-6.68357926 65.41241921 -17.66162327 63.80088092 -27.8125 57.3125 C-27.33519162 55.8535574 -26.85558958 54.39536504 -26.375 52.9375 C-25.97474609 51.71933594 -25.97474609 51.71933594 -25.56640625 50.4765625 C-24.8125 48.3125 -24.8125 48.3125 -23.8125 46.3125 C-21.29885178 47.31255359 -18.79293937 48.32084831 -16.3046875 49.3828125 C-8.70926064 52.44365616 -1.53929158 53.98077938 6.375 51.1875 C8.45382606 49.37078969 8.45382606 49.37078969 8.8125 46.3125 C8.50598647 43.21654687 8.50598647 43.21654687 6.20703125 41.77734375 C1.61941058 39.55178392 -3.19335175 38.49790774 -8.13085938 37.29492188 C-14.91215121 35.54143303 -20.14203565 32.674885 -24.8125 27.3125 C-26.7350412 21.5448764 -26.83336212 15.43275209 -24.1875 9.9375 C-17.00152804 1.99510994 -10.40704798 -0.07171948 0 0 Z " fill="#1E355A" transform="translate(371.8125,654.6875)"/>
<path d="M0 0 C2.866875 -0.061875 5.73375 -0.12375 8.6875 -0.1875 C10.02880981 -0.22846802 10.02880981 -0.22846802 11.3972168 -0.27026367 C17.18781723 -0.33065684 20.48510021 0.65854158 24.8125 4.6875 C26.57066682 8.11129854 26.77565806 11.29249678 26 15 C24.02321824 18.52185256 21.9012851 20.69957163 18 22 C16.59175107 22.08021999 15.18002769 22.10765977 13.76953125 22.09765625 C13.04612549 22.09515869 12.32271973 22.09266113 11.57739258 22.09008789 C10.66497803 22.08098389 9.75256348 22.07187988 8.8125 22.0625 C5.904375 22.041875 2.99625 22.02125 0 22 C0 14.74 0 7.48 0 0 Z " fill="#F3F6F7" transform="translate(566,667)"/>
<path d="M0 0 C12.46024735 -0.41077739 12.46024735 -0.41077739 17 3 C19 6 19 6 18.9375 9.5 C18 13 18 13 16 14.9375 C11.94015168 16.37536295 8.26168837 16.25068755 4 16 C4 18.31 4 20.62 4 23 C2.68 23 1.36 23 0 23 C0 15.41 0 7.82 0 0 Z " fill="#9FA9B1" transform="translate(469,732)"/>
<path d="M0 0 C31.35 0 62.7 0 95 0 C95 0.99 95 1.98 95 3 C63.65 3 32.3 3 0 3 C0 2.01 0 1.02 0 0 Z " fill="#ADB7BF" transform="translate(362,742)"/>
<path d="M0 0 C1.83203125 0.0625 1.83203125 0.0625 4 1 C5.10186855 3.37599687 5.92792361 5.51855432 6.6875 8 C7.77856022 12.33517134 7.77856022 12.33517134 10 16 C10.31453125 14.92878906 10.6290625 13.85757813 10.953125 12.75390625 C11.38453913 11.35649961 11.816879 9.95937854 12.25 8.5625 C12.45496094 7.85544922 12.65992188 7.14839844 12.87109375 6.41992188 C13.515625 4.37890625 13.515625 4.37890625 15 1 C17.171875 0.02734375 17.171875 0.02734375 19 0 C21.66038099 5.5626148 22.96232949 10.93267948 24 17 C24.66 17 25.32 17 26 17 C26.16435547 16.1646875 26.16435547 16.1646875 26.33203125 15.3125 C27.44275248 9.96658969 28.97225526 5.06936184 31 0 C31.99 0 32.98 0 34 0 C32.18120817 7.89520997 29.92975651 15.44509488 27 23 C25.68 23 24.36 23 23 23 C22.65066406 22.00097656 22.30132813 21.00195312 21.94140625 19.97265625 C21.48192081 18.66921795 21.02227721 17.3658354 20.5625 16.0625 C20.33240234 15.40314453 20.10230469 14.74378906 19.86523438 14.06445312 C18.88035408 10.77671378 18.88035408 10.77671378 17 8 C15.35 12.95 13.7 17.9 12 23 C10.35 22.67 8.7 22.34 7 22 C5.78979492 20.08227539 5.78979492 20.08227539 4.98046875 17.59765625 C4.5309082 16.26250977 4.5309082 16.26250977 4.07226562 14.90039062 C3.78029297 13.96388672 3.48832031 13.02738281 3.1875 12.0625 C2.72053711 10.66354492 2.72053711 10.66354492 2.24414062 9.23632812 C0 2.41512706 0 2.41512706 0 0 Z " fill="#919BA3" transform="translate(494,732)"/>
<path d="M0 0 C3.24164349 3.74035787 4.85546843 8.03022982 6.6875 12.5625 C7.00783203 13.33013672 7.32816406 14.09777344 7.65820312 14.88867188 C10 20.61583822 10 20.61583822 10 24 C3.73 24 -2.54 24 -9 24 C-8.30387321 20.51936603 -7.66304824 17.82902176 -6.40625 14.609375 C-6.09816406 13.81789063 -5.79007812 13.02640625 -5.47265625 12.2109375 C-5.15167969 11.39882813 -4.83070313 10.58671875 -4.5 9.75 C-4.01853516 8.50863281 -4.01853516 8.50863281 -3.52734375 7.2421875 C-1.13422338 1.13422338 -1.13422338 1.13422338 0 0 Z " fill="#E9EEF0" transform="translate(508,670)"/>
<path d="M0 0 C5 1 5 1 6.39379883 3.04125977 C6.74466553 3.91580811 7.09553223 4.79035645 7.45703125 5.69140625 C8.04194336 7.10776367 8.04194336 7.10776367 8.63867188 8.55273438 C9.02603516 9.54595703 9.41339844 10.53917969 9.8125 11.5625 C10.42254883 13.05813477 10.42254883 13.05813477 11.04492188 14.58398438 C12.04763483 17.04947859 13.03158752 19.52087671 14 22 C12.68 22.33 11.36 22.66 10 23 C9.34 21.35 8.68 19.7 8 18 C4.04 17.67 0.08 17.34 -4 17 C-4.66 18.98 -5.32 20.96 -6 23 C-7.32 22.67 -8.64 22.34 -10 22 C-6.7 14.74 -3.4 7.48 0 0 Z " fill="#9CA5AC" transform="translate(543,732)"/>
<path d="M0 0 C3.44018477 3.35484229 4.8648338 5.47630827 5.30078125 10.390625 C5.34977242 26.52504924 5.34977242 26.52504924 -0.61328125 32.7109375 C-1.40089844 33.46632813 -2.18851563 34.22171875 -3 35 C-2.86722656 34.23300781 -2.73445312 33.46601562 -2.59765625 32.67578125 C-0.86910923 21.81243098 -0.38667235 10.98086604 0 0 Z " fill="#AC619C" transform="translate(557,492)"/>
<path d="M0 0 C8.625 -0.25 8.625 -0.25 12 2 C12.3125 5 12.3125 5 12 8 C10 10 10 10 7.6171875 10.1953125 C6.71226562 10.17210937 5.80734375 10.14890625 4.875 10.125 C2.461875 10.063125 2.461875 10.063125 0 10 C0 6.7 0 3.4 0 0 Z " fill="#EEF1F2" transform="translate(472,735)"/>
<path d="M0 0 C1.32 0.33 2.64 0.66 4 1 C4.66 3.64 5.32 6.28 6 9 C4.35 8.67 2.7 8.34 1 8 C0.01 10.97 -0.98 13.94 -2 17 C-2.66 17 -3.32 17 -4 17 C-4.33 17.66 -4.66 18.32 -5 19 C-5.66 18.67 -6.32 18.34 -7 18 C-6.02429039 15.18625639 -5.04461694 12.3740064 -4.0625 9.5625 C-3.78470703 8.76005859 -3.50691406 7.95761719 -3.22070312 7.13085938 C-2.95322266 6.36708984 -2.68574219 5.60332031 -2.41015625 4.81640625 C-2.16402588 4.10943604 -1.91789551 3.40246582 -1.66430664 2.67407227 C-1 1 -1 1 0 0 Z " fill="#9CA4AB" transform="translate(510,732)"/>
<path d="M0 0 C0.33 0 0.66 0 1 0 C1 24.75 1 49.5 1 75 C0.01 73.68 -0.98 72.36 -2 71 C-1.505 70.01 -1.505 70.01 -1 69 C-0.87913832 66.81525817 -0.8225238 64.62687 -0.79467773 62.43896484 C-0.78477814 61.76567642 -0.77487854 61.092388 -0.76467896 60.3986969 C-0.73304885 58.16947974 -0.70830066 55.94024126 -0.68359375 53.7109375 C-0.66302552 52.16679322 -0.64202908 50.62265459 -0.62062073 49.07852173 C-0.56538651 45.01135833 -0.51598322 40.94414401 -0.46777344 36.87689209 C-0.41756825 32.72777771 -0.36187707 28.57873741 -0.30664062 24.4296875 C-0.19904254 16.28652095 -0.09760126 8.14329248 0 0 Z " fill="#DD836E" transform="translate(547,390)"/>
<path d="M0 0 C0.33 0 0.66 0 1 0 C0.54177532 3.46941546 0.10868317 6.67395049 -1 10 C1.64 10 4.28 10 7 10 C6.67 10.66 6.34 11.32 6 12 C3.03 12 0.06 12 -3 12 C-3.66 13.98 -4.32 15.96 -5 18 C-6.32 17.67 -7.64 17.34 -9 17 C-7.68990468 14.35295091 -6.37705236 11.7073344 -5.0625 9.0625 C-4.50272461 7.93038086 -4.50272461 7.93038086 -3.93164062 6.77539062 C-3.39506836 5.69741211 -3.39506836 5.69741211 -2.84765625 4.59765625 C-2.51773682 3.93258057 -2.18781738 3.26750488 -1.84790039 2.58227539 C-1 1 -1 1 0 0 Z " fill="#949DA6" transform="translate(542,737)"/>
<path d="M0 0 C2.27024968 -0.08097324 4.54132075 -0.13917704 6.8125 -0.1875 C8.07707031 -0.22230469 9.34164063 -0.25710938 10.64453125 -0.29296875 C14 0 14 0 15.9375 1.3125 C17.53147879 3.84411337 17.19428181 6.08577285 17 9 C16.34 9 15.68 9 15 9 C14.71125 8.195625 14.4225 7.39125 14.125 6.5625 C13.26737432 3.8673532 13.26737432 3.8673532 11 3 C9.46331135 2.77532169 7.92031946 2.59203195 6.375 2.4375 C5.55773437 2.35371094 4.74046875 2.26992188 3.8984375 2.18359375 C3.27195312 2.12300781 2.64546875 2.06242188 2 2 C2.02320313 2.62648438 2.04640625 3.25296875 2.0703125 3.8984375 C2.08835937 4.71570313 2.10640625 5.53296875 2.125 6.375 C2.14820313 7.18710937 2.17140625 7.99921875 2.1953125 8.8359375 C2 11 2 11 0 13 C0 8.71 0 4.42 0 0 Z " fill="#909AA4" transform="translate(470,733)"/>
<path d="M0 0 C0.33 0 0.66 0 1 0 C1 14.85 1 29.7 1 45 C0.67 45 0.34 45 0 45 C-0.33 32.13 -0.66 19.26 -1 6 C-2.32 6.99 -3.64 7.98 -5 9 C-3.50164236 5.88802644 -1.86022073 2.91164984 0 0 Z " fill="#93539C" transform="translate(547,543)"/>
<path d="M0 0 C0.66 0 1.32 0 2 0 C2.99 2.97 3.98 5.94 5 9 C2.36 9 -0.28 9 -3 9 C-2.01 6.03 -1.02 3.06 0 0 Z " fill="#F2F4F6" transform="translate(544,737)"/>
<path d="M0 0 C0.33 0 0.66 0 1 0 C1 10.23 1 20.46 1 31 C0.01 29.68 -0.98 28.36 -2 27 C-1.67 26.34 -1.34 25.68 -1 25 C-0.84655791 23.11527141 -0.75040429 21.22572126 -0.68359375 19.3359375 C-0.62075195 17.65371094 -0.62075195 17.65371094 -0.55664062 15.9375 C-0.51732422 14.761875 -0.47800781 13.58625 -0.4375 12.375 C-0.39431641 11.19164062 -0.35113281 10.00828125 -0.30664062 8.7890625 C-0.20032574 5.85949672 -0.09829358 2.92984412 0 0 Z " fill="#CA727C" transform="translate(547,434)"/>
<path d="M0 0 C1.44010481 0.25662245 2.8770687 0.53090821 4.3125 0.8125 C5.11300781 0.96332031 5.91351562 1.11414063 6.73828125 1.26953125 C9.30394877 2.09816653 10.47773493 2.77115456 12 5 C11.6875 7.1875 11.6875 7.1875 11 9 C9.54033966 7.87672229 8.08231636 6.75131706 6.625 5.625 C5.81289063 4.99851562 5.00078125 4.37203125 4.1640625 3.7265625 C2 2 2 2 0 0 Z " fill="#F7BA52" transform="translate(521,306)"/>
<path d="M0 0 C0.66 0.33 1.32 0.66 2 1 C1.2884375 1.61875 1.2884375 1.61875 0.5625 2.25 C-1.14369792 3.87255091 -1.14369792 3.87255091 -1.4375 6 C-2.20391605 8.72503485 -3.67901268 9.50258883 -6 11 C-5.55530671 5.96014269 -3.28656638 3.62365012 0 0 Z " fill="#DDE1E4" transform="translate(730,757)"/>
<path d="M0 0 C0.33 0 0.66 0 1 0 C0.67 2.31 0.34 4.62 0 7 C-0.99 7 -1.98 7 -3 7 C-3.33 6.34 -3.66 5.68 -4 5 C-3.0625 2.875 -3.0625 2.875 -2 1 C-2 1.99 -2 2.98 -2 4 C-1.34 4 -0.68 4 0 4 C0 2.68 0 1.36 0 0 Z " fill="#A8B2BA" transform="translate(487,738)"/>
<path d="M0 0 C0.33 0 0.66 0 1 0 C1 1.98 1 3.96 1 6 C-1 7 -3 8 -5 9 C-3.50164236 5.88802644 -1.86022073 2.91164984 0 0 Z " fill="#A15A9C" transform="translate(547,543)"/>
<path d="M0 0 C0.33 0.99 0.66 1.98 1 3 C1.66 3 2.32 3 3 3 C2.34 4.32 1.68 5.64 1 7 C0.34 7 -0.32 7 -1 7 C-1.625 5.1875 -1.625 5.1875 -2 3 C-1.34 2.01 -0.68 1.02 0 0 Z " fill="#9CA5AC" transform="translate(517,746)"/>
<path d="M0 0 C2.97 0.495 2.97 0.495 6 1 C4.68 2.32 3.36 3.64 2 5 C1.34 3.35 0.68 1.7 0 0 Z " fill="#43BDBF" transform="translate(431,337)"/>
</svg>
